<?xml version="1.0" encoding="utf-8"?>
<!-- Generator: Adobe Illustrator 21.0.0, SVG Export Plug-In . SVG Version: 6.00 Build 0)  -->
<svg version="1.1" id="Layer_1" xmlns="http://www.w3.org/2000/svg" xmlns:xlink="http://www.w3.org/1999/xlink" x="0px" y="0px"
	 viewBox="0 0 640 480" style="enable-background:new 0 0 640 480;" xml:space="preserve">
<style type="text/css">
	.st0{display:none;}
	.st1{fill:#FFFFFF;stroke:#FFFFFF;stroke-width:12.5912;stroke-miterlimit:10;}
	.st2{fill:none;stroke:#000000;stroke-width:7.8695;stroke-miterlimit:10;}
</style>
<g id="Layer_1_1_" class="st0">
	
		<image style="display:inline;overflow:visible;enable-background:new    ;" width="930" height="930" xlink:href="9D4B698C.png"  transform="matrix(0.7753 0 0 0.9602 15 -205)">
	</image>
</g>
<path class="st1" d="M627.727,231.653L348.695,32.497l-9.482-7.198l-8.127-4.799l-27.091,2.399L12.773,231.653
	c0,0-6.773,7.198-6.773,11.997s0,9.598,0,9.598s2.709,4.799,6.773,9.598c4.064,4.799,51.472,38.392,51.472,38.392l235.687,167.963
	l6.773,4.799h28.445l93.462-67.185c0,0,10.836-9.598,10.836-11.997c0-2.399,0-11.997,0-11.997L303.996,260.447l-8.127-7.198v-9.598
	L406.94,142.873l9.482-7.198h13.545c0,0,8.127,14.397,8.127,19.196c0,4.799,1.355,184.759,1.355,184.759s2.709,26.394,10.836,31.193
	c8.127,4.799,18.963,4.799,18.963,4.799l155.77-110.376l5.418-4.799c0,0,4.064-4.799,4.064-11.997c0-7.198,0-9.598,0-9.598
	S631.791,234.053,627.727,231.653z"/>
<path class="st2" d="M467.893,322.833c0,0,0-139.169,0-148.767c0-9.598,4.064-7.198,4.064-7.198l101.589,71.984l5.418,4.799v7.198
	l-104.298,76.783C474.666,327.632,467.893,334.831,467.893,322.833z"/>
<path class="st2" d="M260.651,394.817L60.181,250.849v-7.198l6.773-4.799c0,0,230.269-165.563,238.397-170.362
	c8.127-4.799,24.381-2.399,24.381-2.399l4.064,2.399l48.763,33.593c0,0,2.709,2.399,2.709,4.799s0,4.799,0,4.799
	s-4.064,4.799-6.773,7.198c-2.709,2.399-123.262,110.376-123.262,110.376s-8.127,7.198-8.127,11.997c0,4.799,0,14.397,0,14.397
	s9.482,14.397,21.672,23.995c12.191,9.598,109.717,95.979,109.717,95.979s5.418,7.198,5.418,9.598s0,4.799,0,4.799l-48.763,35.992
	c0,0-17.609,9.598-31.154,0C290.45,416.413,260.651,394.817,260.651,394.817z"/>
</svg>
