<?xml version="1.0" encoding="utf-8"?>
<!-- Generator: Adobe Illustrator 21.0.0, SVG Export Plug-In . SVG Version: 6.00 Build 0)  -->
<svg version="1.1" id="Layer_1" xmlns="http://www.w3.org/2000/svg" xmlns:xlink="http://www.w3.org/1999/xlink" x="0px" y="0px"
	 viewBox="0 0 640 480" style="enable-background:new 0 0 640 480;" xml:space="preserve">
<style type="text/css">
	.st0{display:none;}
	.st1{fill:none;stroke:#FFFFFF;stroke-width:8;stroke-miterlimit:10;}
	.st2{fill:none;stroke:#FFFFFF;stroke-width:5;stroke-miterlimit:10;}
</style>
<g id="Layer_1_1_" class="st0">
	
		<image style="display:inline;overflow:visible;enable-background:new    ;" width="930" height="930" xlink:href="9D4B698C.png"  transform="matrix(0.7753 0 0 0.9602 15 -205)">
	</image>
</g>
<path class="st1" d="M351.1,8.6L244.4,218.8l-3.9,7.1l-2.6,6.1l1.3,20.4l111.9,219.4c0,0,3.9,5.1,6.4,5.1c2.6,0,5.1,0,5.1,0
	s2.6-2,5.1-5.1c2.6-3.1,20.6-38.8,20.6-38.8l90-177.6l2.6-5.1V229l-36-70.4c0,0-5.1-8.2-6.4-8.2c-1.3,0-6.4,0-6.4,0l-65.6,102
	l-3.9,6.1h-5.1l-54-83.7l-3.9-7.1v-10.2c0,0,7.7-6.1,10.3-6.1s99-1,99-1s14.1-2,16.7-8.2c2.6-6.1,2.6-14.3,2.6-14.3L369.1,10.6
	l-2.6-4.1c0,0-2.6-3.1-6.4-3.1s-5.1,0-5.1,0S352.4,5.5,351.1,8.6z"/>
<path class="st2" d="M400,129c0,0-74.6,0-79.7,0s-3.9-3.1-3.9-3.1L355,49.4l2.6-4.1h3.9l41.1,78.6C402.6,123.9,406.4,129,400,129z"
	/>
<path class="st2" d="M438.6,285.2l-77.1,151h-3.9l-2.6-5.1c0,0-88.7-173.5-91.3-179.6c-2.6-6.1-1.3-18.4-1.3-18.4l1.3-3.1l18-36.7
	c0,0,1.3-2,2.6-2c1.3,0,2.6,0,2.6,0s2.6,3.1,3.9,5.1c1.3,2,59.1,92.9,59.1,92.9s3.9,6.1,6.4,6.1c2.6,0,7.7,0,7.7,0
	s7.7-7.1,12.9-16.3s51.4-82.7,51.4-82.7s3.9-4.1,5.1-4.1c1.3,0,2.6,0,2.6,0l19.3,36.7c0,0,5.1,13.3,0,23.5S438.6,285.2,438.6,285.2z
	"/>
</svg>
