<?xml version="1.0" encoding="utf-8"?>
<!-- Generator: Adobe Illustrator 21.0.0, SVG Export Plug-In . SVG Version: 6.00 Build 0)  -->
<svg version="1.1" id="Layer_1" xmlns="http://www.w3.org/2000/svg" xmlns:xlink="http://www.w3.org/1999/xlink" x="0px" y="0px"
	 viewBox="0 0 1080 1080" style="enable-background:new 0 0 1080 1080;" xml:space="preserve">
<style type="text/css">
	.st0{display:none;opacity:0.57;}
	.st1{display:none;}
	.st2{display:inline;fill:none;stroke:#000000;stroke-miterlimit:10;}
	.st3{fill:#FFFFFF;stroke:#000000;stroke-width:7.6529;stroke-miterlimit:10;}
	.st4{fill:none;stroke:#000000;stroke-width:7.6529;stroke-miterlimit:10;}
</style>
<g id="Layer_1_1_" class="st0">
	
		<image style="display:inline;overflow:visible;enable-background:new    ;" width="930" height="930" xlink:href="9D4B698C.png"  transform="matrix(0.9602 0 0 1.1149 103.614 7.5965)">
	</image>
</g>
<g id="Layer_2" class="st1">
	<path class="st2" d="M540,785L431,532.7c0,0-3.5-14.9,0-25.9l109-253c0,0,1.8-4.1,4.2-4.1c2.3,0,5.9,0,5.9,0h1.4c0,0,1.5,0.8,2,1.7
		c0.5,0.8,58.5,134.5,58.5,134.5s0.8,1.4,0.8,2.8c0,1.3,0.6,15,0,15.9s-8.3,12-16,12.2s-94.3-0.1-95.4,0.3
		c-1.2,0.3-10.9,3.6-11.4,7.5s-0.8,11.7,2,17.8l51.3,95.9c0,0,1.5,2.1,2,2.2s3.9,0.2,3.9,0.2l1,0.1L615.4,419c0,0,1.5-2,2.1-2
		s6.1-0.1,6.1-0.1s0.8-0.1,1.6,1.4l38.4,87.4l0.8,2.8c0,0,1.5,14.9,0,20.9s-3.2,9.1-3.2,9.1L554.8,785c0,0-4.1,4-6.4,4.3
		S545,789.1,540,785z"/>
	<path class="st2" d="M544.4,299.3l-38.9,89.1c0,0-1.1,2.6,1.8,3.1s2.9,0.5,2.9,0.5h76.3c0,0,4-1.4,2.6-4.1s-38.9-89.3-38.9-89.3
		s-1.9-3-2.8-2.8C546.4,296.1,544.4,299.3,544.4,299.3z"/>
	<path class="st2" d="M471.3,469L454,510.1c0,0-2,14.6,0,19.9s90.1,208.9,90.1,208.9s1.4,2.4,1.8,2.5s0.4,0.1,0.4,0.1h2.8
		l90.8-208.9c0,0,3.5-17.9,0.9-23.8S622.4,467,622.4,467s-2-3.1-3.3-3.1s-3,1.9-3,1.9l-60,111.1c0,0-4.9,5.1-8.8,4.9
		c-3.9-0.3-6-1.8-6-1.8l-62.5-114.3c0,0-1.8-1.9-2.9-1.9S472.3,466.5,471.3,469z"/>
</g>
<g id="Layer_3">
	<path class="st3" d="M520.1,1076c-5.2,0-9.2-2.5-17.6-9.8l-1.1-1L297.2,569.1l-0.2-0.6c-0.4-1.2-6.7-31.2,0.2-53.9v-0.2L501,18.6
		c1.1-2.7,5.6-11.6,12.9-11.6h15.1l1.3,0.8c1.3,0.8,4.3,2.7,5.8,5.3c0.7,1.4,37.6,90.1,109.5,264.1c0.6,1,1.9,4.3,1.9,7.8
		c0,0.6,0,2,0.2,4.1c0.7,27.2,0.2,28.2-0.9,30.2c-0.2,0.2-16.4,26.1-34.6,26.6c-4.7,0.2-24.3,0.2-52.3,0.2h-41.5
		c-23.4,0-77.5,0-83.5,0.2c-6.7,2.2-16.1,7.1-16.8,9.8c-0.6,4.3-1.9,19.6,3.2,31.5l95.5,187.5c0.4,0.6,0.9,1.2,1.3,1.8
		c0.9,0,2.2,0.2,3.5,0.2l120.3-235.7l0.2-0.4c3.9-5.7,6.5-6.3,8.4-6.3c1.1,0,9.9-0.2,11.2-0.2h0.2c1.1,0,5.2,0.4,7.8,5.9l0.2,0.4
		l71.9,171.6l1.9,6.5v0.6c0.4,3.1,2.8,30.6-0.2,42.9c-2.6,11-5.6,17.6-6.4,19L538.6,1065l-0.7,0.8c-2.8,2.7-9.7,9.4-15.1,10
		C521.6,1076,520.8,1076,520.1,1076z"/>
	<path class="st4" d="M514.5,110.1l-72.7,174.6c0,0-2.1,5.1,3.4,6.1c5.4,1,5.4,1,5.4,1h142.5c0,0,7.5-2.7,4.9-8
		c-2.6-5.3-72.7-175-72.7-175s-3.5-5.9-5.2-5.5C518.2,103.8,514.5,110.1,514.5,110.1z"/>
	<path class="st4" d="M377.5,456.1l-32.1,80.5c0,0-3.7,28.6,0,39c3.7,10.4,168.3,409.3,168.3,409.3s2.6,4.7,3.4,4.9
		c0.7,0.2,0.7,0.2,0.7,0.2h5.2l169.6-409.3c0,0,6.5-35.1,1.7-46.6c-4.9-11.6-34.2-82.1-34.2-82.1s-3.7-6.1-6.2-6.1
		c-2.4,0-5.6,3.7-5.6,3.7L536.3,667.3c0,0-9.2,10-16.4,9.6c-7.3-0.6-11.2-3.5-11.2-3.5L391.9,449.4c0,0-3.4-3.7-5.4-3.7
		C384.5,445.7,379.4,451.2,377.5,456.1z"/>
</g>
</svg>
